<svg width="17" height="17" viewBox="0 0 17 17" fill="none" xmlns="http://www.w3.org/2000/svg">
<path d="M6.62151 2.86565C6.86817 2.61892 7.16103 2.4232 7.48334 2.28966C7.80566 2.15613 8.15113 2.0874 8.50001 2.0874C8.84889 2.0874 9.19436 2.15613 9.51667 2.28966C9.83899 2.4232 10.1318 2.61892 10.3785 2.86565L14.1344 6.62159C14.3812 6.86825 14.5769 7.1611 14.7104 7.48342C14.844 7.80574 14.9127 8.1512 14.9127 8.50009C14.9127 8.84897 14.844 9.19443 14.7104 9.51675C14.5769 9.83907 14.3812 10.1319 14.1344 10.3786L10.3785 14.1345C10.1318 14.3813 9.83899 14.577 9.51667 14.7105C9.19436 14.844 8.84889 14.9128 8.50001 14.9128C8.15113 14.9128 7.80566 14.844 7.48334 14.7105C7.16103 14.577 6.86817 14.3813 6.62151 14.1345L2.86557 10.3786C2.61884 10.1319 2.42312 9.83907 2.28959 9.51675C2.15606 9.19443 2.08733 8.84897 2.08733 8.50009C2.08733 8.1512 2.15606 7.80574 2.28959 7.48342C2.42312 7.1611 2.61884 6.86825 2.86557 6.62159L6.62151 2.86565ZM9.62732 3.61684C9.47932 3.46873 9.30358 3.35125 9.11015 3.27109C8.91672 3.19093 8.70939 3.14968 8.50001 3.14968C8.29063 3.14968 8.0833 3.19093 7.88987 3.27109C7.69644 3.35125 7.5207 3.46873 7.3727 3.61684L3.61676 7.37277C3.46866 7.52078 3.35117 7.69652 3.27101 7.88995C3.19086 8.08338 3.1496 8.29071 3.1496 8.50009C3.1496 8.70947 3.19086 8.91679 3.27101 9.11022C3.35117 9.30365 3.46866 9.47939 3.61676 9.6274L7.3727 13.3833C7.5207 13.5314 7.69644 13.6489 7.88987 13.7291C8.0833 13.8092 8.29063 13.8505 8.50001 13.8505C8.70939 13.8505 8.91672 13.8092 9.11015 13.7291C9.30358 13.6489 9.47932 13.5314 9.62732 13.3833L13.3833 9.6274C13.5314 9.47939 13.6488 9.30365 13.729 9.11022C13.8092 8.91679 13.8504 8.70947 13.8504 8.50009C13.8504 8.29071 13.8092 8.08338 13.729 7.88995C13.6488 7.69652 13.5314 7.52078 13.3833 7.37277L9.62732 3.61684ZM8.65513 4.93646C8.75476 4.83687 8.88986 4.78092 9.03073 4.78092C9.1716 4.78092 9.3067 4.83687 9.40632 4.93646L11.0001 6.53021C11.0495 6.57956 11.0888 6.63818 11.1156 6.70272C11.1424 6.76727 11.1561 6.83646 11.1561 6.90634C11.1561 6.97621 11.1424 7.0454 11.1156 7.10995C11.0888 7.17449 11.0495 7.23311 11.0001 7.28246L9.40632 8.87621C9.30657 8.97582 9.17133 9.03173 9.03035 9.03163C8.88938 9.03153 8.75422 8.97543 8.6546 8.87568C8.55499 8.77593 8.49908 8.64069 8.49918 8.49971C8.49928 8.35874 8.55538 8.22357 8.65513 8.12396L9.34257 7.43759H7.96876C7.82786 7.43759 7.69274 7.49356 7.59311 7.59319C7.49348 7.69281 7.43751 7.82794 7.43751 7.96884V10.6251C7.43751 10.766 7.38154 10.9011 7.28191 11.0007C7.18228 11.1004 7.04716 11.1563 6.90626 11.1563C6.76536 11.1563 6.63024 11.1004 6.53061 11.0007C6.43098 10.9011 6.37501 10.766 6.37501 10.6251V7.96884C6.37501 7.54615 6.54292 7.14077 6.84181 6.84188C7.14069 6.543 7.54607 6.37509 7.96876 6.37509H9.34257L8.65513 5.68871C8.60566 5.63936 8.56641 5.58074 8.53963 5.5162C8.51285 5.45165 8.49906 5.38246 8.49906 5.31259C8.49906 5.24271 8.51285 5.17352 8.53963 5.10897C8.56641 5.04443 8.60566 4.98581 8.65513 4.93646Z" fill="#EFF7F5"/>
</svg>
